<?xml version="1.0" encoding="utf-8"?>
<!-- Generator: Adobe Illustrator 28.0.0, SVG Export Plug-In . SVG Version: 6.00 Build 0)  -->
<svg version="1.1" id="Capa_1" xmlns="http://www.w3.org/2000/svg" xmlns:xlink="http://www.w3.org/1999/xlink" x="0px" y="0px"
	 viewBox="0 0 800 800" style="enable-background:new 0 0 800 800;" xml:space="preserve">
<g>
	<path d="M366.1,569.1h-62.5L126.3,746.5h244c-2.7-5.7-4.2-12-4.2-18.7V569.1z"/>
	<polygon points="46,683.1 160,569.1 46,569.1 	"/>
	<path d="M466,426.7v-19.9l-20,20c0.3,0,0.6,0,0.8,0H466z"/>
	<path d="M46,542.8h140.3l114.5-114.5l-12.4-47.7l13.2-29.2c2.5-5.6-1.5-11.8-7.6-11.8h-28.4c-6.1,0-10.2,6.3-7.6,11.8l13.2,29.2
		L254,444.7l-2.6,9.7c-0.2,1.1-0.4,2.3-0.6,3.4c-0.7,4.4-1.2,8.8-1.3,13.2H236c-0.4-1.3-0.8-2.5-1.1-3.8l-2.2-9.3l-3.1-13.2
		l-21.2-90.4c-2-8.7-9.8-14.8-18.7-14.8h-45.6c-27.9,0-50.4,22.6-50.4,50.4v54.7v13.2V471H25.4C11.4,471,0,482.4,0,496.4v20.9
		c0,14.1,11.4,25.4,25.4,25.4H46z"/>
	<path d="M351.3,354.3L344,385l45.5-45.5h-19.6C361,339.5,353.3,345.6,351.3,354.3z"/>
	<path d="M366.1,528.2v-20.7c0-0.2,0-0.4,0-0.6c0-0.1,0-0.2,0-0.2L330,542.8h36.1V528.2z"/>
	<path d="M279.9,312.2c62.5,0,113.2-50.7,113.2-113.2V78.7c0-15.6-14-27.4-29.4-24.8c-33.3,5.7-109.3,20.9-156.6,30.4
		c-23.5,4.7-40.5,25.4-40.5,49.5V199C166.6,261.5,217.3,312.2,279.9,312.2z"/>
	<path d="M755.7,453.2c-3.6-0.7-7.3-1.1-11-1.1H466h-19.1c-8.8,0-17.1,2.1-24.4,5.7c-6.6,3.2-12.4,7.7-17.1,13.2
		c-8.4,9.6-13.6,22.2-13.7,35.9c0,0.2,0,0.4,0,0.6v20.7v14.6V556v13.2v158.7c0,10.3,8.4,18.7,18.7,18.7h283.4h87.7
		c10.3,0,18.7-8.4,18.7-18.7V507.5C800,480.7,781,458.4,755.7,453.2z"/>
	<path d="M498.1,374.7c22.7,28.9,58.1,47.5,97.7,47.5c68.6,0,124.2-55.6,124.2-124.2v-71.6c0-19.7-10.4-37.4-26.5-47.2L498.1,374.7z
		"/>
	<path d="M503.9,138.9c-1.6-0.3-3.2-0.4-4.7-0.4c-14.9,0-27.5,12.1-27.5,27.6v91.4l105-105C547.5,146.8,520.7,141.7,503.9,138.9z"/>
	<path d="M770,31.3l-0.3-0.3c-12.7-12.7-33.3-12.7-46,0l-695,695c-12.7,12.7-12.7,33.3,0,46l0.3,0.3c12.7,12.7,33.3,12.7,46,0
		l695-695C782.7,64.6,782.7,44,770,31.3z"/>
</g>
</svg>
