<?xml version="1.0" encoding="UTF-8"?>
<svg id="Layer_1" data-name="Layer 1" xmlns="http://www.w3.org/2000/svg" viewBox="0 0 544.64 544.64">
  <defs>
    <style>
      .cls-1 {
        fill: #be1e2d;
        fill-rule: evenodd;
        stroke-width: 0px;
      }
    </style>
  </defs>
  <path class="cls-1" d="m272.31,0C121.92,0,0,121.92,0,272.32s121.92,272.32,272.31,272.32,272.32-121.92,272.32-272.32S422.71,0,272.31,0Zm97.75,335.74c7.98,7.98,7.98,20.91,0,28.88h0c-7.98,7.98-20.91,7.98-28.88,0l-67.47-67.47-69,69.01c-7.97,7.97-20.9,7.97-28.88,0-3.98-3.99-5.98-9.22-5.98-14.45s2-10.45,5.98-14.44l69-69-69-69c-7.98-7.98-7.98-20.91,0-28.88,7.98-7.98,20.91-7.98,28.88,0l69,69,67.47-67.47c7.98-7.97,20.91-7.97,28.88,0,3.99,3.99,5.99,9.22,5.99,14.44s-2,10.45-5.99,14.44l-67.47,67.47,67.47,67.47Z"/>
</svg>