<?xml version="1.0" encoding="UTF-8"?>
<svg id="Layer_1" data-name="Layer 1" xmlns="http://www.w3.org/2000/svg" viewBox="0 0 544.64 544.64">
  <defs>
    <style>
      .cls-1 {
        fill: #fcb325;
        fill-rule: evenodd;
        stroke-width: 0px;
      }
    </style>
  </defs>
  <path class="cls-1" d="m272.32,0C121.92,0,0,121.92,0,272.31s121.92,272.32,272.32,272.32,272.32-121.92,272.32-272.32S422.72,0,272.32,0Zm35.8,298.94c36.01,39.62,54.01,59.43,48.97,76.52-.43,1.47-.97,2.9-1.61,4.27-7.42,16.01-32.88,16.01-83.81,16.01s-76.39,0-83.81-16.01c-.64-1.38-1.18-2.81-1.61-4.27-5.04-17.09,12.96-36.9,48.97-76.52l24.12-26.41-24.12-26.41c-36.01-39.62-54.01-59.43-48.97-76.52.43-1.47.97-2.9,1.61-4.27,7.42-16.01,32.88-16.01,83.81-16.01s76.39,0,83.81,16.01c.64,1.38,1.18,2.81,1.61,4.27,5.04,17.09-12.96,36.9-48.97,76.52l-24.12,26.41,24.12,26.41Z"/>
</svg>